<svg width="24" height="24" viewBox="0 0 24 24" fill="none" xmlns="http://www.w3.org/2000/svg">
<path d="M21.8906 7.08105H20.4178C19.1651 4.10664 16.4067 1.94509 13.2312 1.53227C10.0843 1.11273 6.9923 2.32398 4.96945 4.76223C4.3748 5.47909 3.90309 6.25844 3.55772 7.08105H2.10938C0.946219 7.08105 0 8.02727 0 9.19042V12.0029C0 13.1661 0.946219 14.1123 2.10938 14.1123H4.99692L4.69481 13.1901C3.8152 10.504 4.3103 7.75942 6.05231 5.66036C7.76414 3.59697 10.3782 2.57594 13.0485 2.92614C15.8726 3.29402 18.324 5.29122 19.2952 8.01555L19.3011 8.03134C19.4574 8.44609 19.5679 8.87666 19.6307 9.31539C19.8415 10.6303 19.7213 11.9631 19.284 13.1695L19.2809 13.1779C18.1952 16.2604 15.2752 18.331 12.0137 18.331C10.843 18.331 9.89062 19.2773 9.89062 20.4404C9.89062 21.6036 10.8368 22.5498 12 22.5498C13.1632 22.5498 14.1094 21.6036 14.1094 20.4404V19.4921C16.9169 18.8248 19.2751 16.8347 20.4086 14.1122H21.8906C23.0538 14.1122 24 13.166 24 12.0029V9.19038C24 8.02722 23.0538 7.08105 21.8906 7.08105Z" fill="white"/>
<path d="M5.67188 15.5186V16.9248H12C15.4895 16.9248 18.3281 14.0862 18.3281 10.5967C18.3281 7.10716 15.4895 4.26855 12 4.26855C8.51048 4.26855 5.67188 7.10716 5.67188 10.5967C5.67146 12.0143 6.14736 13.391 7.02319 14.5058C6.85359 15.0983 6.31252 15.5186 5.67188 15.5186ZM14.1094 9.89355H15.5156V11.2998H14.1094V9.89355ZM11.2969 9.89355H12.7031V11.2998H11.2969V9.89355ZM8.48438 9.89355H9.89063V11.2998H8.48438V9.89355Z" fill="white"/>
</svg>
